<svg width="310" height="220" xmlns="http://www.w3.org/2000/svg">
 <!-- Created with Method Draw - http://github.com/duopixel/Method-Draw/ -->

 <g>
  <title>background</title>
  <rect fill="none" id="canvas_background" height="222" width="312" y="-1" x="-1"/>
  <g display="none" overflow="visible" y="0" x="0" height="100%" width="100%" id="canvasGrid">
   <rect fill="url(#gridpattern)" stroke-width="0" y="1" x="1" height="600" width="800"/>
  </g>
 </g>
 <g>
  <title>Layer 1</title>
  <text font-style="normal" font-weight="normal" stroke="#000" transform="matrix(1.43786 0 0 1.69847 -174.321 -192.8)" xml:space="preserve" text-anchor="start" font-family="monospace" font-size="39" id="svg_1" y="233.95582" x="124.35533" stroke-width="0" fill="#000000">Easy-LDAP</text>
  <g id="svg_43">
   <g transform="matrix(0.391389 0 0 0.391389 0 0)" id="svg_6">
    <path id="svg_7" d="m628.02551,56.56654l-8.49994,0l0,-24.5c0,-2.90497 -1.67798,-5.54901 -4.30701,-6.78601c-69.60504,-32.75397 -149.28513,-33.21997 -219.19324,-1.44897c-69.90802,-31.771 -149.58798,-31.30402 -219.19296,1.44897c-2.62903,1.237 -4.30701,3.88104 -4.30701,6.78601l0,24.5l-8.5,0c-12.95801,0 -23.5,10.54196 -23.5,23.49997l0,263.99999c0,12.95801 10.54199,23.5 23.5,23.5l464.00015,0c12.95807,0 23.50006,-10.54199 23.50006,-23.5l0,-263.99999c0,-12.95801 -10.54199,-23.49997 -23.50006,-23.49997zm-224.50006,111.47696c0,-0.00894 0,-0.01895 0,-0.02802l0,-131.13895c64.13699,-28.70697 136.86102,-28.70697 201.00006,0l0,27.16098c0,0.01001 -0.00098,0.02002 -0.00098,0.02899s0.00098,0.02002 0.00098,0.02899l0,244.43807c-32.23706,-13.461 -66.37097,-20.19308 -100.50006,-20.19308c-34.12903,0 -68.26401,6.73209 -100.5,20.19308l0,-140.49007zm-48.00012,-143.19193c11.18704,3.20398 22.21701,7.198 33,12.02497l0,117.17698l-12.34003,-8.22699c-2.51996,-1.67999 -5.80096,-1.67999 -8.31998,0l-12.34,8.22699l0,-129.20194zm-167.99997,39.23495c0,-0.00702 0.00098,-0.013 0.00098,-0.02002s-0.00098,-0.01199 -0.00098,-0.01898l0,-27.17099c48.56299,-21.73596 102.04599,-26.99896 152.99997,-15.81995l0,32.85596c-26.76694,-5.505 -54.078,-6.77698 -81.32797,-3.75c-4.11702,0.45703 -7.08301,4.16504 -6.62598,8.28198c0.45801,4.116 4.16199,7.08499 8.28198,6.626c26.70798,-2.96695 53.47897,-1.56201 79.67093,4.16498l0,48.68604c-15.91196,-3.26498 -32.13995,-5.06702 -48.37695,-5.323c-4.14502,-0.078 -7.552,3.23901 -7.61804,7.38c-0.065,4.14197 3.23904,7.55203 7.38,7.61798c16.33105,0.258 32.65399,2.16404 48.61401,5.64698l0,16.66006c-43.38895,-8.909 -88.38998,-6.64398 -130.74796,6.66495c-3.95203,1.24106 -6.14801,5.45099 -4.90698,9.40302c1.00696,3.20398 3.96399,5.25397 7.15295,5.25397c0.745,0 1.50201,-0.11191 2.25,-0.34698c40.908,-12.85199 84.42804,-14.77301 126.25198,-5.638l0,2.82501c0,2.76599 1.52206,5.30798 3.961,6.61203c2.43799,1.306 5.39801,1.16199 7.69897,-0.37204l19.84006,-13.22699l16.49997,11l0,136.45396c-32.237,-13.461 -66.37103,-20.19299 -100.49997,-20.19299c-34.12898,0 -68.26398,6.73199 -100.5,20.19299l0,-244.44598l0.00201,0zm176.99997,288.47997l-200.49997,0c-4.68701,0 -8.5,-3.81299 -8.5,-8.5l0,-263.99999c0,-4.68701 3.81299,-8.49997 8.5,-8.49997l8.5,0l0,248.49996l0,8c0,4.14197 3.35803,7.5 7.5,7.5l184.49997,0l0,17zm-166.70999,-32c58.09898,-22.93396 122.31998,-22.935 180.42001,0l-180.42001,0zm214.71011,32l-33.00012,0l0,-17l33.00012,0l0,17zm181.71002,-32l-180.41995,0c58.09897,-22.93396 122.31998,-22.93396 180.41995,0zm42.2901,23.5c0,4.68701 -3.81305,8.5 -8.50006,8.5l-200.50006,0l0,-17l184.50006,0c4.14197,0 7.50006,-3.35803 7.50006,-7.5l0,-8l0,-248.49996l8.49994,0c4.68701,0 8.50006,3.81296 8.50006,8.49997l0,263.99999z"/>
    <path id="svg_8" d="m450.48541,246.20952c-8.302,1.73999 -16.61499,3.91101 -24.70801,6.45401c-3.95187,1.24197 -6.14792,5.45198 -4.90698,9.40297c1.00708,3.20398 3.96399,5.25397 7.15308,5.25397c0.7449,0 1.50195,-0.11197 2.25,-0.34692c7.62796,-2.39597 15.46387,-4.44305 23.28796,-6.08301c4.05399,-0.85004 6.65201,-4.82507 5.80203,-8.87901c-0.84903,-4.05402 -4.82706,-6.65097 -8.87808,-5.802z"/>
    <path id="svg_9" d="m580.02759,267.31952c3.18896,0 6.14697,-2.05096 7.15295,-5.254c1.24097,-3.95193 -0.95605,-8.16194 -4.90698,-9.403c-32.073,-10.07599 -65.32916,-13.84198 -98.84402,-11.18799c-4.12906,0.32599 -7.21109,3.93799 -6.88504,8.06799s3.93494,7.213 8.06802,6.88499c31.58994,-2.49898 62.93497,1.04797 93.16495,10.54602c0.74805,0.23495 1.505,0.34598 2.25012,0.34598z"/>
    <path id="svg_10" d="m428.0235,235.22752c0.7449,0 1.50195,-0.112 2.25,-0.34698c48.24893,-15.15903 99.25592,-15.15903 147.50397,0c3.95203,1.23999 8.16199,-0.95605 9.40308,-4.90698c1.24097,-3.95203 -0.95605,-8.16199 -4.90698,-9.40308c-51.19104,-16.08295 -105.30609,-16.08295 -156.49615,0c-3.95187,1.24109 -6.14893,5.45105 -4.90698,9.40308c1.00708,3.20303 3.96399,5.25397 7.15308,5.25397z"/>
    <path id="svg_11" d="m428.0235,203.31953c0.7449,0 1.50195,-0.11194 2.25,-0.34695c27.68094,-8.69708 56.40897,-12.41205 85.39899,-11.03705c4.14691,0.19202 7.65094,-2.99896 7.84705,-7.13702c0.19604,-4.13791 -2.99908,-7.64996 -7.13696,-7.84695c-30.75308,-1.45602 -61.23615,2.483 -90.60516,11.70999c-3.95187,1.24203 -6.14893,5.45206 -4.90698,9.40298c1.00708,3.20596 3.96399,5.255 7.15308,5.255z"/>
    <path id="svg_12" d="m582.27356,188.66252c-10.76013,-3.38 -21.84607,-6.086 -32.95203,-8.04294c-4.07996,-0.71902 -7.96802,2.00598 -8.68799,6.08496c-0.71912,4.07901 2.005,7.96899 6.08496,8.68802c10.46704,1.84399 20.91699,4.39496 31.05798,7.58099c0.74902,0.23495 1.505,0.34692 2.25,0.34692c3.18896,0 6.14697,-2.05096 7.15308,-5.25397c1.24194,-3.95291 -0.9541,-8.16302 -4.90601,-9.40399z"/>
    <path id="svg_13" d="m428.0235,171.22752c0.7449,0 1.50195,-0.112 2.25,-0.34698c48.24893,-15.15897 99.25592,-15.15897 147.50397,0c3.95203,1.23999 8.16199,-0.95599 9.40308,-4.90698c1.24097,-3.95203 -0.95605,-8.16205 -4.90698,-9.40302c-51.19104,-16.08301 -105.30609,-16.08301 -156.49615,0c-3.95187,1.24097 -6.14893,5.45099 -4.90698,9.40302c1.00708,3.20303 3.96399,5.25397 7.15308,5.25397z"/>
    <path id="svg_14" d="m475.20343,114.16251c-16.7319,1.85797 -33.36194,5.35999 -49.42603,10.40701c-3.95187,1.241 -6.14792,5.45097 -4.90698,9.40299c1.00708,3.20407 3.96414,5.25403 7.15308,5.25403c0.74503,0 1.50195,-0.112 2.25,-0.34698c15.14099,-4.75702 30.81497,-8.05701 46.58496,-9.80902c4.11694,-0.457 7.08301,-4.16499 6.62598,-8.28196s-4.16891,-7.08405 -8.28101,-6.62607z"/>
    <path id="svg_15" d="m507.91147,127.59751c23.72501,0.375 47.23099,4.17002 69.866,11.28303c0.74805,0.23401 1.505,0.34698 2.25,0.34698c3.18896,0 6.146,-2.05099 7.15308,-5.25403c1.24097,-3.95197 -0.95605,-8.16199 -4.90698,-9.40302c-24.01514,-7.54498 -48.95508,-11.57196 -74.12506,-11.96997c-4.125,-0.078 -7.55209,3.23904 -7.61804,7.38s3.23904,7.552 7.38101,7.617z"/>
    <path id="svg_16" d="m531.19653,97.16453c4.11597,0.45999 7.82495,-2.509 8.28198,-6.62604c0.45801,-4.117 -2.50903,-7.82495 -6.62598,-8.28198c-36.25214,-4.02698 -72.27814,-0.526 -107.07513,10.40601c-3.95187,1.242 -6.14792,5.45203 -4.90698,9.40302c1.00708,3.20398 3.96399,5.254 7.15308,5.254c0.7449,0 1.50195,-0.11203 2.25,-0.34702c32.797,-10.30399 66.75195,-13.60303 100.92303,-9.80798z"/>
    <path id="svg_17" d="m582.27356,92.66251c-5.41809,-1.70203 -10.96008,-3.24597 -16.47205,-4.58798c-4.03003,-0.97998 -8.08203,1.48801 -9.06201,5.51199c-0.97998,4.02402 1.48804,8.082 5.51196,9.06204c5.19604,1.26498 10.41907,2.71997 15.526,4.32394c0.74805,0.23499 1.505,0.34702 2.25,0.34702c3.18896,0 6.14709,-2.05096 7.15308,-5.254c1.24097,-3.95203 -0.95508,-8.16205 -4.90698,-9.40302z"/>
    <path id="svg_18" d="m428.0235,75.22752c0.7449,0 1.50195,-0.112 2.25,-0.34698c5.10291,-1.604 10.32495,-3.05798 15.521,-4.32404c4.02393,-0.97998 6.49194,-5.03699 5.51196,-9.06195s-5.03809,-6.49197 -9.06198,-5.51199c-5.51297,1.34198 -11.05301,2.88599 -16.46805,4.58698c-3.9509,1.24197 -6.14795,5.45199 -4.90695,9.40298c1.00803,3.20407 3.96494,5.255 7.15402,5.255z"/>
    <path id="svg_19" d="m476.85446,65.07151c34.17197,-3.79602 68.12613,-0.49597 100.923,9.80902c0.74805,0.23401 1.505,0.34698 2.25012,0.34698c3.18896,0 6.14587,-2.05099 7.15295,-5.25403c1.24097,-3.95197 -0.95605,-8.16198 -4.90698,-9.40301c-34.797,-10.93295 -70.82404,-14.43497 -107.07611,-10.40591c-4.11691,0.45697 -7.08301,4.16498 -6.62598,8.28195c0.45804,4.11603 4.16397,7.08407 8.28299,6.625z"/>
    <path id="svg_20" d="m234.48538,246.20952c-8.302,1.73999 -16.61505,3.91101 -24.70801,6.45401c-3.95203,1.24197 -6.14801,5.45198 -4.90704,9.40297c1.00702,3.20398 3.96405,5.25397 7.15302,5.25397c0.745,0 1.50201,-0.11197 2.25,-0.34692c7.62799,-2.39597 15.46399,-4.44305 23.28802,-6.08301c4.05396,-0.85004 6.65198,-4.82507 5.802,-8.87901s-4.82703,-6.65097 -8.87799,-5.802z"/>
    <path id="svg_21" d="m364.02734,267.31952c3.18896,0 6.14697,-2.05096 7.15302,-5.254c1.24097,-3.95193 -0.95599,-8.16194 -4.90704,-9.403c-32.073,-10.07599 -65.33099,-13.84198 -98.84396,-11.18799c-4.12894,0.32599 -7.211,3.93799 -6.88501,8.06799s3.93402,7.213 8.06805,6.88499c31.59091,-2.49898 62.93491,1.04797 93.16495,10.54602c0.74799,0.23495 1.505,0.34598 2.25,0.34598z"/>
    <path id="svg_22" d="m212.02335,235.22752c0.745,0 1.50201,-0.112 2.25,-0.34698c48.24905,-15.15903 99.25595,-15.15903 147.504,0c3.952,1.23999 8.16199,-0.95605 9.40302,-4.90698c1.24097,-3.95203 -0.95599,-8.16199 -4.90704,-9.40308c-51.19098,-16.08295 -105.30698,-16.08295 -156.49594,0c-3.95203,1.24109 -6.14899,5.45105 -4.90704,9.40308c1.00702,3.20303 3.96405,5.25397 7.15302,5.25397z"/>
    <path id="svg_23" d="m212.02335,203.31953c0.745,0 1.50201,-0.11194 2.25,-0.34695c27.68103,-8.69708 56.41098,-12.41205 85.39896,-11.03705c4.15805,0.19202 7.65002,-2.99896 7.84705,-7.13702c0.19598,-4.13791 -2.99902,-7.64996 -7.13699,-7.84695c-30.75601,-1.45602 -61.23602,2.483 -90.60498,11.70999c-3.95203,1.24203 -6.14899,5.45206 -4.90704,9.40298c1.00702,3.20596 3.96405,5.255 7.15302,5.255z"/>
    <path id="svg_24" d="m330.71939,195.39256c10.46695,1.84399 20.9169,4.39496 31.05795,7.58099c0.74896,0.23499 1.505,0.34698 2.25,0.34698c3.18896,0 6.14697,-2.05103 7.15302,-5.25394c1.24097,-3.95206 -0.95599,-8.16208 -4.90704,-9.40308c-10.75995,-3.38004 -21.84601,-6.08594 -32.95197,-8.043c-4.07904,-0.71896 -7.96899,2.00607 -8.68796,6.08499c-0.71802,4.07803 2.00598,7.96802 6.086,8.68704z"/>
    <path id="svg_25" d="m259.20334,114.16251c-16.73199,1.85797 -33.362,5.35999 -49.42596,10.40701c-3.95203,1.241 -6.14801,5.45097 -4.90704,9.40299c1.00702,3.20407 3.96405,5.25403 7.15302,5.25403c0.745,0 1.50201,-0.112 2.25,-0.34698c15.14099,-4.75702 30.815,-8.05701 46.58502,-9.80902c4.117,-0.457 7.08304,-4.16499 6.62601,-8.28196c-0.45602,-4.11606 -4.17096,-7.08405 -8.28104,-6.62607z"/>
    <path id="svg_26" d="m204.87033,102.06553c1.00702,3.20398 3.96405,5.254 7.15302,5.254c0.745,0 1.50201,-0.11203 2.25,-0.34702c32.797,-10.30496 66.75198,-13.60397 100.923,-9.80902c4.11597,0.46002 7.82501,-2.50894 8.28198,-6.62598c0.45801,-4.117 -2.50897,-7.82501 -6.62595,-8.28198c-36.25308,-4.02698 -72.27802,-0.526 -107.07501,10.40601c-3.95203,1.24298 -6.14801,5.453 -4.90704,9.40399z"/>
    <path id="svg_27" d="m212.02335,75.22752c0.745,0 1.50201,-0.112 2.25,-0.34698c5.10303,-1.604 10.32501,-3.05798 15.521,-4.32404c4.02399,-0.97998 6.492,-5.03699 5.51202,-9.06195s-5.03802,-6.49197 -9.06201,-5.51199c-5.513,1.34198 -11.05298,2.88599 -16.46802,4.58698c-3.95099,1.24197 -6.14795,5.45199 -4.90698,9.40298c1.008,3.20407 3.96503,5.255 7.15399,5.255z"/>
   </g>
   <g transform="matrix(0.391389 0 0 0.391389 0 0)" id="svg_28"/>
   <g transform="matrix(0.391389 0 0 0.391389 0 0)" id="svg_29"/>
   <g transform="matrix(0.391389 0 0 0.391389 0 0)" id="svg_30"/>
   <g transform="matrix(0.391389 0 0 0.391389 0 0)" id="svg_31"/>
   <g transform="matrix(0.391389 0 0 0.391389 0 0)" id="svg_32"/>
   <g transform="matrix(0.391389 0 0 0.391389 0 0)" id="svg_33"/>
   <g transform="matrix(0.391389 0 0 0.391389 0 0)" id="svg_34"/>
   <g transform="matrix(0.391389 0 0 0.391389 0 0)" id="svg_35"/>
   <g transform="matrix(0.391389 0 0 0.391389 0 0)" id="svg_36"/>
   <g transform="matrix(0.391389 0 0 0.391389 0 0)" id="svg_37"/>
   <g transform="matrix(0.391389 0 0 0.391389 0 0)" id="svg_38"/>
   <g transform="matrix(0.391389 0 0 0.391389 0 0)" id="svg_39"/>
   <g transform="matrix(0.391389 0 0 0.391389 0 0)" id="svg_40"/>
   <g transform="matrix(0.391389 0 0 0.391389 0 0)" id="svg_41"/>
   <g transform="matrix(0.391389 0 0 0.391389 0 0)" id="svg_42"/>
  </g>
 </g>
</svg>